<?xml version="1.0" encoding="utf-8"?>
<!-- Generator: Adobe Illustrator 16.0.0, SVG Export Plug-In . SVG Version: 6.00 Build 0)  -->
<!DOCTYPE svg PUBLIC "-//W3C//DTD SVG 1.1//EN" "http://www.w3.org/Graphics/SVG/1.1/DTD/svg11.dtd">
<svg version="1.1" id="Layer_1" xmlns="http://www.w3.org/2000/svg" xmlns:xlink="http://www.w3.org/1999/xlink" x="0px" y="0px"
	 width="2522.83px" height="510.24px" viewBox="0 0 2522.83 510.24" enable-background="new 0 0 2522.83 510.24"
	 xml:space="preserve">
<g id="Layer_1_1_" display="none">
	<g display="inline">
		<path fill="#007990" d="M79.184,125.403c25.675-12.97,55.904-20.469,88.301-20.469c17.52,0,34.406,2.193,50.294,6.255
			c-1.533-0.051-3.033-0.228-4.591-0.228c-71.897,0-130.623,55.134-133.896,124.05c-0.039,0.188-0.063,0.379-0.108,0.572V125.403z
			 M263.396,257.414c-10.038,25.408-47.015,44.301-91.23,44.301c-37.104,0-69.086-13.306-84.377-32.594
			c13.179,55.288,64.266,96.56,125.398,96.56c17.813,0,34.781-3.484,50.209-9.822V257.414z"/>
		<path fill="#79A342" d="M213.188,371.08c-68.559,0-125.134-50.116-133.107-114.495l0.094,1.322l-58.343,53.6
			c29.12,41.073,83.425,68.733,145.654,68.733c23.03,0,44.983-3.802,64.974-10.661C226.149,370.478,219.753,371.08,213.188,371.08z
			 M172.164,185.527c44.218,0,81.192,18.89,91.23,44.302v-0.252l56.035-58.998c-23.213-32.724-62.119-54.212-106.244-54.212
			c-63.708,0-116.467,44.793-126.832,103.591C101.028,199.683,133.889,185.527,172.164,185.527z"/>
		<path fill="#007990" d="M294.668,358.226l70.756-172.625h35.306l23.759,172.625h-28.766l-5.385-42.312h-50.529l-16.375,42.312
			H294.668z M347.799,293.917h40.86l-9.362-85.113h-0.481L347.799,293.917z M424.488,358.226l21.691-172.625h33.601l33.953,128.63
			h0.481l16.102-128.63h26.114l-21.688,172.625H501.13l-33.518-132.014h-0.482l-16.526,132.014H424.488z M551.599,304.786h27.561
			l-0.593,4.354c-0.45,4.035-0.535,7.737-0.232,11.125c1.194,13.7,9.368,20.541,24.521,20.541c8.223,0,15.08-2.559,20.6-7.721
			c4.907-4.688,7.789-10.491,8.636-17.423c0.377-3.05,0.456-5.884,0.226-8.459c-0.872-9.989-7.88-17.403-21.045-22.238
			l-17.969-6.524c-18.979-6.922-29.165-18.293-30.536-34.088c-0.354-4.027-0.172-8.46,0.531-13.297
			c1.872-15.473,8.206-27.476,18.974-36.024c10.779-8.537,24.391-12.812,40.841-12.812c27.229,0,41.76,10.39,43.576,31.182
			c0.366,4.196,0.212,8.954-0.456,14.265l-0.624,3.875h-27.561l0.647-3.623c0.377-3.065,0.465-5.809,0.251-8.228
			c-0.977-11.12-8.146-16.677-21.524-16.677c-15.473,0-24.177,8.292-26.114,24.904c-0.418,2.571-0.536,4.91-0.355,6.999
			c0.835,9.516,8.332,16.934,22.49,22.244l17.761,6.771c18.508,7.101,28.418,18.133,29.728,33.117
			c0.337,3.869,0.219,8.073-0.352,12.564c-4.396,34.666-25.618,51.99-63.646,51.99c-28.69,0-44.104-12.33-46.258-36.979
			c-0.426-4.854-0.319-10.087,0.313-15.726L551.599,304.786z M692.558,273.701l26.142-63.772h13.044l8.776,63.772h-10.626
			l-1.994-15.636h-18.665l-6.056,15.636H692.558z M712.188,249.942h15.094l-3.46-31.435h-0.172L712.188,249.942z M744.361,277.817
			h9.114c-0.029,0.346-0.029,0.681-0.009,0.978c0.124,1.361,0.741,2.507,1.864,3.396c1.113,0.891,2.603,1.345,4.444,1.345
			c2.502,0,4.577-0.812,6.228-2.408c1.644-1.619,2.642-3.817,2.997-6.612l1.011-7.777h-0.178c-2.477,4.4-6.389,6.613-11.747,6.613
			c-7.094,0-11.014-4.371-11.775-13.131c-0.277-3.1-0.144-6.791,0.374-11.075c2.074-16.499,8.203-24.745,18.385-24.745
			c2.688,0,4.95,0.744,6.809,2.239c1.673,1.368,2.61,3.001,2.839,4.91h0.176l0.735-5.897h9.109l-5.649,45.733
			c-1.593,12.495-8.365,18.767-20.339,18.767c-9.055,0-13.852-3.158-14.402-9.479C744.266,279.724,744.271,278.767,744.361,277.817z
			 M756.515,248.16c-0.606,4.704-0.799,8.188-0.61,10.446c0.42,4.709,2.373,7.06,5.896,7.06c5.53,0,9.022-5.687,10.479-17.058
			c0.452-3.696,0.57-6.703,0.37-9.027c-0.431-4.998-2.43-7.507-6.012-7.507c-3.22,0-5.639,1.584-7.271,4.738
			C758.085,239.197,757.129,242.982,756.515,248.16z M823.57,250.93h-25.105l-0.284,2.764c-0.402,2.979-0.516,5.418-0.355,7.323
			c0.438,4.887,2.61,7.325,6.544,7.325c2.979,0,5.294-1.432,6.949-4.284c1.091-1.847,1.769-3.988,2.028-6.427h9.104
			c-0.668,5.302-2.693,9.517-6.086,12.636c-3.38,3.118-7.705,4.688-12.939,4.688c-4.045,0-7.182-0.771-9.406-2.33
			c-3.167-2.188-4.998-6.089-5.482-11.696c-0.259-2.979-0.151-6.495,0.33-10.533c2.177-17.334,9.196-25.998,21.041-25.998
			c9.052,0,13.938,4.084,14.649,12.239c0.221,2.562,0.102,5.621-0.355,9.2L823.57,250.93z M798.398,219.391l9.772-12.863h9.645
			l6.303,12.863h-8.127l-3.812-7.857l-6.104,7.857H798.398z M799.315,244.319h15.46l0.312-2.595c0.214-1.604,0.27-3.035,0.155-4.29
			c-0.373-4.284-2.438-6.427-6.188-6.427c-5.359,0-8.571,4.106-9.646,12.324L799.315,244.319z M828.683,273.701l5.985-48.053h9.111
			l-0.671,5.627h0.271c3.173-4.58,7.553-6.879,13.146-6.879c6.49,0,9.986,2.807,10.475,8.398c0.118,1.368,0.078,2.922-0.13,4.64
			l-4.523,36.267h-9.644l4.098-32.959c0.227-1.491,0.291-2.769,0.195-3.846c-0.279-3.207-2.199-4.822-5.776-4.822
			c-2.096,0-3.956,0.786-5.604,2.326c-1.811,1.727-2.886,4.081-3.223,7.057l-4.067,32.244H828.683z M897.183,256.188h9.11
			c-1.138,6.142-3.062,10.689-5.779,13.683c-3.033,3.385-7.384,5.083-13.039,5.083c-9.234,0-14.259-4.768-15.092-14.294
			c-0.272-3.088-0.146-6.752,0.381-10.985c1.016-8.1,3.021-14.169,6.005-18.222c3.46-4.645,8.47-6.994,15.015-7.057
			c8.992-0.056,13.838,4.017,14.559,12.239c0.142,1.608,0.078,3.272-0.19,4.999h-9.649c0.228-1.484,0.298-2.823,0.188-4.022
			c-0.361-4.101-2.295-6.131-5.804-6.066c-3.214,0.06-5.652,1.752-7.324,5.09c-1.307,2.743-2.366,7.092-3.148,13.039
			c-0.562,4.532-0.725,8.035-0.514,10.542c0.443,5.063,2.599,7.591,6.469,7.591C893.256,267.868,896.195,263.999,897.183,256.188z
			 M911.746,273.701l5.987-48.053h9.648l-5.993,48.053H911.746z M918.673,218.951l1.113-9.644h9.658l-1.125,9.644H918.673z
			 M967.343,236.216l-3.406,27.562c-0.029,0.309-0.036,0.604-0.011,0.897c0.146,1.668,0.851,2.511,2.104,2.511
			c0.71,0,1.229-0.119,1.569-0.367l-0.779,6.34c-1.723,0.777-3.317,1.174-4.812,1.174c-4.587,0-7.032-1.748-7.333-5.241
			c-0.04-0.425-0.053-0.851-0.025-1.284l-0.172,0.09c-3.163,4.709-7.452,7.06-12.872,7.06c-6.727,0-10.359-3.067-10.896-9.2
			c-0.111-1.303-0.091-2.74,0.074-4.293c0.644-4.938,2.11-8.568,4.408-10.887c1.811-1.729,4.703-3.13,8.654-4.201l7.771-2.054
			c2.037-0.536,3.498-1.165,4.393-1.885c1.11-0.885,1.793-2.314,2.046-4.283c0.079-1.007,0.093-1.906,0.027-2.677
			c-0.267-2.98-2.173-4.467-5.75-4.467c-4.883,0-7.715,3.065-8.484,9.2h-9.11c0.66-5.306,2.38-9.2,5.141-11.696
			c3.032-2.744,7.597-4.115,13.666-4.115c8.752,0,13.387,2.984,13.908,8.952C967.529,234.245,967.49,235.193,967.343,236.216z
			 M955.698,256.378l0.998-8.04c-1.063,0.775-2.896,1.604-5.499,2.502c-3.354,1.066-5.266,1.727-5.72,1.963
			c-2.809,1.255-4.462,3.841-4.952,7.771c-0.111,0.771-0.136,1.521-0.079,2.229c0.298,3.337,2.014,5.005,5.18,5.005
			C951.395,267.808,954.762,263.999,955.698,256.378z M994.547,273.701l8.016-63.772h12.416l12.538,47.516h0.183l5.946-47.516h9.65
			l-8.022,63.772h-12.416l-12.384-48.763h-0.18l-6.104,48.763H994.547z M1081.405,236.216l-3.396,27.562
			c-0.036,0.309-0.043,0.604-0.021,0.897c0.144,1.668,0.851,2.511,2.101,2.511c0.709,0,1.239-0.119,1.579-0.367l-0.791,6.34
			c-1.724,0.777-3.32,1.174-4.812,1.174c-4.584,0-7.028-1.748-7.333-5.241c-0.036-0.425-0.043-0.851-0.025-1.284l-0.169,0.09
			c-3.166,4.709-7.453,7.06-12.861,7.06c-6.737,0-10.37-3.067-10.897-9.2c-0.115-1.303-0.094-2.74,0.068-4.293
			c0.643-4.938,2.104-8.568,4.407-10.887c1.814-1.729,4.697-3.13,8.649-4.201l7.775-2.054c2.038-0.536,3.503-1.165,4.394-1.885
			c1.109-0.885,1.791-2.314,2.042-4.283c0.083-1.007,0.104-1.906,0.029-2.677c-0.255-2.98-2.175-4.467-5.754-4.467
			c-4.881,0-7.705,3.065-8.485,9.2h-9.105c0.668-5.306,2.381-9.2,5.145-11.696c3.03-2.744,7.586-4.115,13.662-4.115
			c8.762,0,13.396,2.984,13.913,8.952C1081.584,234.245,1081.549,235.193,1081.405,236.216z M1069.765,256.378l0.991-8.04
			c-1.062,0.775-2.897,1.604-5.492,2.502c-3.367,1.066-5.273,1.727-5.729,1.963c-2.811,1.255-4.462,3.841-4.943,7.771
			c-0.122,0.771-0.141,1.521-0.075,2.229c0.287,3.337,2.01,5.005,5.169,5.005C1065.461,267.808,1068.82,263.999,1069.765,256.378z
			 M1112.084,256.188h9.115c-1.135,6.142-3.061,10.689-5.776,13.683c-3.04,3.385-7.392,5.083-13.041,5.083
			c-9.229,0-14.267-4.768-15.097-14.294c-0.273-3.088-0.142-6.752,0.377-10.985c1.021-8.1,3.026-14.169,6.008-18.222
			c3.466-4.645,8.464-6.994,15.015-7.057c8.988-0.056,13.844,4.017,14.559,12.239c0.143,1.608,0.075,3.272-0.188,4.999h-9.65
			c0.232-1.484,0.286-2.823,0.192-4.022c-0.366-4.101-2.294-6.131-5.799-6.066c-3.221,0.06-5.662,1.752-7.335,5.09
			c-1.312,2.743-2.358,7.092-3.148,13.039c-0.562,4.532-0.725,8.035-0.51,10.542c0.442,5.063,2.599,7.591,6.468,7.591
			C1108.156,267.868,1111.098,263.999,1112.084,256.188z M1126.654,273.701l5.987-48.053h9.648l-5.991,48.053H1126.654z
			 M1133.573,218.951l1.127-9.644h9.641l-1.117,9.644H1133.573z M1147.146,249.675c1.034-8.1,3.033-14.169,6.013-18.222
			c3.46-4.704,8.46-7.057,15.01-7.057c9.301,0,14.355,4.795,15.191,14.386c0.271,3.035,0.137,6.668-0.386,10.893
			c-2.104,16.86-9.137,25.279-21.107,25.279c-9.171,0-14.186-4.944-15.051-14.825
			C1146.551,257.089,1146.656,253.604,1147.146,249.675z M1156.806,249.675c-0.642,5.006-0.847,8.758-0.625,11.253
			c0.388,4.591,2.59,6.88,6.583,6.88c3.331,0,5.793-1.49,7.378-4.461c1.322-2.564,2.389-7.117,3.188-13.672
			c0.546-4.526,0.721-8.04,0.507-10.542c-0.441-5.06-2.63-7.587-6.561-7.587c-3.218,0-5.661,1.694-7.322,5.09
			C1158.633,239.321,1157.578,243.664,1156.806,249.675z M1187.397,273.701l5.986-48.053h9.11l-0.671,5.627h0.261
			c3.181-4.58,7.562-6.879,13.156-6.879c6.49,0,9.986,2.807,10.478,8.398c0.115,1.368,0.078,2.922-0.142,4.64l-4.517,36.267h-9.643
			l4.084-32.959c0.232-1.491,0.303-2.769,0.202-3.846c-0.278-3.207-2.211-4.822-5.771-4.822c-2.089,0-3.959,0.786-5.606,2.326
			c-1.812,1.727-2.894,4.081-3.224,7.057l-4.067,32.244H1187.397z M1266.562,236.216l-3.404,27.562
			c-0.03,0.309-0.03,0.604-0.011,0.897c0.146,1.668,0.858,2.511,2.104,2.511c0.714,0,1.233-0.119,1.579-0.367l-0.788,6.34
			c-1.721,0.777-3.326,1.174-4.81,1.174c-4.589,0-7.037-1.748-7.344-5.241c-0.031-0.425-0.04-0.851-0.021-1.284l-0.168,0.09
			c-3.168,4.709-7.456,7.06-12.871,7.06c-6.729,0-10.361-3.067-10.892-9.2c-0.125-1.303-0.101-2.74,0.062-4.293
			c0.646-4.938,2.114-8.568,4.418-10.887c1.805-1.729,4.692-3.13,8.646-4.201l7.775-2.054c2.03-0.536,3.493-1.165,4.392-1.885
			c1.105-0.885,1.786-2.314,2.034-4.283c0.09-1.007,0.099-1.906,0.028-2.677c-0.258-2.98-2.161-4.467-5.743-4.467
			c-4.878,0-7.707,3.065-8.485,9.2h-9.109c0.666-5.306,2.381-9.2,5.139-11.696c3.035-2.744,7.603-4.115,13.672-4.115
			c8.746,0,13.385,2.984,13.909,8.952C1266.752,234.245,1266.712,235.193,1266.562,236.216z M1254.924,256.378l0.998-8.04
			c-1.066,0.775-2.902,1.604-5.499,2.502c-3.356,1.066-5.269,1.727-5.728,1.963c-2.807,1.255-4.455,3.841-4.943,7.771
			c-0.112,0.771-0.14,1.521-0.072,2.229c0.287,3.337,2.014,5.005,5.167,5.005C1250.617,267.808,1253.987,263.999,1254.924,256.378z
			 M1272.157,273.701l8.006-63.772h9.653l-8.016,63.772H1272.157z M1337.533,273.701l0.739-5.896h-0.176
			c-2.498,4.771-6.317,7.146-11.441,7.146c-7.787,0-12.103-4.646-12.921-13.938c-0.287-3.324-0.129-7.323,0.483-11.974
			c1.185-9.643,3.571-16.431,7.153-20.354c2.666-2.857,6.229-4.293,10.69-4.293c5.37,0,8.726,2.299,10.077,6.879h0.18l2.688-21.347
			h9.663l-8.025,63.772h-9.11V273.701z M1340.486,250.219c0.563-4.655,0.732-8.195,0.515-10.638
			c-0.441-4.998-2.771-7.507-7.008-7.507c-2.795,0-4.906,1.288-6.314,3.846c-1.412,2.562-2.521,7.091-3.328,13.577
			c-0.572,4.411-0.739,7.857-0.523,10.363c0.437,4.937,2.549,7.414,6.367,7.414c3.1,0,5.488-1.549,7.188-4.648
			C1338.76,260.011,1339.783,255.874,1340.486,250.219z M1392.192,250.93h-25.111l-0.298,2.764
			c-0.396,2.979-0.503,5.418-0.345,7.323c0.438,4.887,2.605,7.325,6.544,7.325c2.982,0,5.301-1.432,6.949-4.284
			c1.087-1.847,1.768-3.988,2.021-6.427h9.11c-0.671,5.302-2.687,9.517-6.08,12.636c-3.395,3.118-7.709,4.688-12.938,4.688
			c-4.059,0-7.197-0.771-9.408-2.33c-3.177-2.188-5.004-6.089-5.488-11.696c-0.255-2.979-0.146-6.495,0.327-10.533
			c2.191-17.334,9.188-25.998,21.045-25.998c9.053,0,13.927,4.084,14.648,12.239c0.227,2.562,0.099,5.621-0.355,9.2L1392.192,250.93
			z M1367.928,244.319h15.469l0.297-2.595c0.229-1.604,0.275-3.035,0.168-4.29c-0.377-4.284-2.438-6.427-6.188-6.427
			c-5.354,0-8.568,4.106-9.646,12.324L1367.928,244.319z M691.49,339.272h10.639l-0.226,1.688c-0.179,1.562-0.208,2.979-0.093,4.283
			c0.463,5.291,3.61,7.938,9.465,7.938c3.179,0,5.824-0.988,7.951-2.99c1.892-1.799,3.012-4.039,3.331-6.713
			c0.144-1.186,0.183-2.271,0.09-3.275c-0.341-3.842-3.041-6.713-8.123-8.579l-6.935-2.507c-7.33-2.678-11.259-7.076-11.792-13.168
			c-0.141-1.553-0.064-3.277,0.198-5.146c0.729-5.973,3.172-10.61,7.326-13.907c4.16-3.297,9.415-4.937,15.771-4.937
			c10.506,0,16.12,4.008,16.818,12.033c0.146,1.628,0.081,3.464-0.174,5.506l-0.241,1.501h-10.642l0.251-1.398
			c0.146-1.187,0.181-2.242,0.104-3.17c-0.386-4.293-3.147-6.437-8.316-6.437c-5.974,0-9.329,3.196-10.083,9.604
			c-0.158,0.996-0.201,1.902-0.129,2.701c0.322,3.663,3.209,6.536,8.678,8.59l6.853,2.606c7.148,2.742,10.978,6.996,11.477,12.779
			c0.136,1.514,0.083,3.119-0.133,4.856c-1.694,13.386-9.887,20.067-24.566,20.067c-11.072,0-17.022-4.748-17.854-14.283
			c-0.166-1.864-0.119-3.879,0.119-6.051L691.49,339.272z M776.942,320.728l-3.546,28.806c-0.04,0.313-0.04,0.632-0.014,0.946
			c0.155,1.746,0.876,2.604,2.186,2.604c0.74,0,1.296-0.118,1.648-0.364l-0.826,6.604c-1.795,0.819-3.467,1.243-5.029,1.243
			c-4.787,0-7.344-1.826-7.66-5.469c-0.029-0.455-0.049-0.908-0.022-1.345l-0.176,0.089c-3.309,4.906-7.784,7.365-13.446,7.365
			c-7.035,0-10.833-3.198-11.386-9.604c-0.118-1.383-0.1-2.861,0.067-4.48c0.671-5.173,2.211-8.973,4.61-11.381
			c1.896-1.809,4.91-3.276,9.042-4.404l8.123-2.141c2.128-0.555,3.649-1.204,4.583-1.954c1.162-0.931,1.872-2.431,2.125-4.482
			c0.102-1.057,0.111-1.98,0.04-2.794c-0.272-3.107-2.275-4.677-6.009-4.677c-5.1,0-8.051,3.216-8.862,9.623h-9.523
			c0.707-5.548,2.495-9.623,5.377-12.24c3.167-2.843,7.932-4.282,14.272-4.282c9.15,0,13.992,3.117,14.541,9.356
			C777.133,318.674,777.097,319.681,776.942,320.728z M764.781,341.792l1.043-8.4c-1.108,0.819-3.021,1.688-5.749,2.615
			c-3.507,1.116-5.504,1.807-5.981,2.064c-2.936,1.303-4.653,3.996-5.167,8.111c-0.113,0.812-0.141,1.59-0.073,2.34
			c0.301,3.483,2.104,5.229,5.396,5.229C760.291,353.755,763.794,349.769,764.781,341.792z M807.977,359.896l0.708-5.873h-0.288
			c-3.241,4.797-7.832,7.188-13.741,7.188c-6.597,0-10.161-3.183-10.725-9.517c-0.172-1.995-0.086-4.295,0.248-6.909l4.401-35.093
			h10.072l-4.512,36.039c-0.088,1.045-0.104,1.953-0.043,2.692c0.279,3.181,2.246,4.759,5.926,4.759c2.301,0,4.34-0.723,6.105-2.189
			c1.763-1.461,2.822-3.521,3.145-6.208l4.402-35.093h10.078l-6.259,50.203H807.977L807.977,359.896z M801.906,303.167l7.319-13.446
			h11.204l-11.613,13.446H801.906z M852.865,359.896l0.771-6.141h-0.184c-2.614,4.977-6.602,7.454-11.947,7.454
			c-8.155,0-12.649-4.849-13.5-14.552c-0.308-3.483-0.139-7.66,0.499-12.506c1.228-10.079,3.726-17.176,7.473-21.282
			c2.789-2.979,6.508-4.481,11.183-4.481c5.601,0,9.105,2.399,10.521,7.178h0.181l2.812-22.299h10.08l-8.36,66.629H852.865
			L852.865,359.896z M855.955,335.354c0.562-4.855,0.74-8.561,0.52-11.104c-0.452-5.224-2.896-7.84-7.305-7.84
			c-2.929,0-5.13,1.343-6.604,4.01c-1.479,2.687-2.639,7.401-3.475,14.19c-0.599,4.611-0.779,8.226-0.556,10.83
			c0.45,5.162,2.672,7.738,6.655,7.738c3.232,0,5.736-1.631,7.502-4.847C854.142,345.591,855.222,341.278,855.955,335.354z
			 M909.955,336.104h-26.225l-0.305,2.893c-0.42,3.119-0.538,5.668-0.359,7.66c0.442,5.094,2.717,7.65,6.824,7.65
			c3.115,0,5.525-1.512,7.265-4.481c1.14-1.925,1.845-4.175,2.114-6.731h9.521c-0.695,5.549-2.813,9.94-6.356,13.219
			c-3.542,3.269-8.049,4.896-13.521,4.896c-4.234,0-7.51-0.812-9.826-2.42c-3.317-2.311-5.226-6.387-5.729-12.229
			c-0.276-3.119-0.154-6.781,0.345-11.019c2.279-18.104,9.605-27.156,21.987-27.156c9.453,0,14.554,4.267,15.297,12.796
			c0.24,2.664,0.107,5.873-0.372,9.604L909.955,336.104z M884.62,329.196h16.149l0.314-2.694c0.228-1.688,0.278-3.169,0.168-4.483
			c-0.389-4.479-2.545-6.729-6.459-6.729c-5.603,0-8.959,4.293-10.068,12.9L884.62,329.196z M938.512,339.272h10.638l-0.229,1.688
			c-0.175,1.562-0.203,2.979-0.084,4.283c0.458,5.291,3.61,7.938,9.456,7.938c3.174,0,5.822-0.988,7.949-2.99
			c1.9-1.799,3.006-4.039,3.338-6.713c0.145-1.186,0.175-2.271,0.088-3.275c-0.334-3.842-3.045-6.713-8.117-8.579l-6.944-2.507
			c-7.317-2.678-11.253-7.076-11.78-13.168c-0.141-1.553-0.067-3.277,0.201-5.146c0.727-5.973,3.169-10.61,7.326-13.907
			c4.16-3.297,9.412-4.937,15.758-4.937c10.514,0,16.129,4.008,16.82,12.033c0.144,1.628,0.094,3.464-0.172,5.506l-0.242,1.501
			H971.88l0.253-1.398c0.146-1.187,0.178-2.242,0.096-3.17c-0.372-4.293-3.146-6.437-8.312-6.437c-5.967,0-9.32,3.196-10.077,9.604
			c-0.162,0.996-0.201,1.902-0.14,2.701c0.327,3.663,3.227,6.536,8.688,8.59l6.849,2.606c7.146,2.742,10.976,6.996,11.483,12.779
			c0.125,1.514,0.079,3.119-0.143,4.856c-1.7,13.386-9.885,20.067-24.567,20.067c-11.074,0-17.021-4.748-17.854-14.283
			c-0.165-1.864-0.118-3.879,0.122-6.051L938.512,339.272z M1011.784,359.896l0.711-5.873h-0.284
			c-3.248,4.797-7.832,7.188-13.74,7.188c-6.594,0-10.169-3.183-10.729-9.517c-0.172-1.995-0.09-4.295,0.248-6.909l4.396-35.093
			h10.08l-4.515,36.039c-0.093,1.045-0.104,1.953-0.045,2.692c0.276,3.181,2.251,4.759,5.923,4.759c2.302,0,4.341-0.723,6.104-2.189
			c1.772-1.461,2.825-3.521,3.144-6.208l4.408-35.093h10.083l-6.264,50.203H1011.784L1011.784,359.896z M1028.992,376.331
			l8.274-66.641h9.525l-0.771,6.16h0.185c2.926-4.969,7.008-7.466,12.229-7.466c7.961,0,12.369,4.839,13.209,14.474
			c0.309,3.533,0.176,7.738-0.392,12.596c-1.227,9.516-3.826,16.445-7.8,20.809c-3.011,3.297-6.668,4.946-10.957,4.946
			c-5.593,0-9.104-2.392-10.518-7.187h-0.184l-2.727,22.309H1028.992L1028.992,376.331z M1043.709,334.241
			c-0.571,4.855-0.74,8.615-0.511,11.292c0.443,5.103,2.688,7.649,6.736,7.649c2.983,0,5.307-1.346,6.971-4.02
			c1.669-2.678,2.922-7.405,3.762-14.188c0.595-4.601,0.771-8.203,0.542-10.809c-0.446-5.164-2.693-7.761-6.738-7.761
			c-3.23,0-5.707,1.63-7.416,4.855C1045.615,324.004,1044.498,328.327,1043.709,334.241z M1076.365,359.896l8.371-66.629h10.077
			l-8.371,66.629H1076.365z M1134.483,336.104h-26.228l-0.303,2.893c-0.415,3.119-0.534,5.668-0.361,7.66
			c0.445,5.094,2.724,7.65,6.834,7.65c3.104,0,5.521-1.512,7.254-4.481c1.138-1.925,1.849-4.175,2.125-6.731h9.516
			c-0.692,5.549-2.812,9.94-6.364,13.219c-3.54,3.269-8.044,4.896-13.513,4.896c-4.241,0-7.511-0.812-9.832-2.42
			c-3.313-2.311-5.221-6.387-5.729-12.229c-0.271-3.119-0.152-6.781,0.341-11.019c2.287-18.104,9.606-27.156,21.993-27.156
			c9.449,0,14.555,4.267,15.295,12.796c0.23,2.664,0.104,5.873-0.37,9.604L1134.483,336.104z M1109.148,329.196h16.146l0.326-2.694
			c0.229-1.688,0.276-3.169,0.162-4.483c-0.384-4.479-2.542-6.729-6.461-6.729c-5.601,0-8.958,4.293-10.072,12.9L1109.148,329.196z
			 M1140.291,359.896l6.259-50.203h9.519l-0.699,5.873h0.281c3.317-4.775,7.615-7.178,12.906-7.178c5.973,0,9.561,2.559,10.74,7.66
			c3.662-5.104,8.199-7.66,13.608-7.66c6.597,0,10.155,3.002,10.673,8.973c0.117,1.297,0.091,2.758-0.078,4.373l-4.792,38.162
			h-10.079l4.279-34.431c0.229-1.619,0.298-2.981,0.195-4.106c-0.284-3.297-1.979-4.943-5.098-4.943c-2.171,0-4.126,0.801-5.85,2.43
			c-1.896,1.816-3.021,4.268-3.373,7.373l-4.242,33.684h-10.079l4.272-34.434c0.229-1.619,0.303-2.979,0.198-4.104
			c-0.291-3.297-2.014-4.946-5.187-4.946c-2.18,0-4.104,0.801-5.768,2.43c-1.898,1.816-3.015,4.265-3.359,7.373l-4.257,33.681
			h-10.075v-0.004h0.004V359.896z M1246.75,336.104h-26.229l-0.307,2.893c-0.413,3.119-0.528,5.668-0.355,7.66
			c0.441,5.094,2.715,7.65,6.827,7.65c3.108,0,5.521-1.512,7.26-4.481c1.138-1.925,1.839-4.175,2.123-6.731h9.511
			c-0.689,5.549-2.812,9.94-6.357,13.219c-3.543,3.269-8.048,4.896-13.518,4.896c-4.229,0-7.509-0.812-9.825-2.42
			c-3.313-2.311-5.229-6.387-5.736-12.229c-0.271-3.119-0.154-6.781,0.341-11.019c2.283-18.104,9.609-27.156,21.993-27.156
			c9.451,0,14.562,4.267,15.298,12.796c0.237,2.664,0.109,5.873-0.373,9.604L1246.75,336.104z M1221.41,329.196h16.152l0.323-2.694
			c0.223-1.688,0.273-3.169,0.167-4.483c-0.396-4.479-2.553-6.729-6.469-6.729c-5.597,0-8.957,4.293-10.07,12.9L1221.41,329.196z
			 M1252.092,359.896l6.25-50.203h9.522l-0.701,5.873h0.275c3.317-4.775,7.897-7.178,13.751-7.178
			c6.781,0,10.424,2.922,10.938,8.766c0.117,1.434,0.078,3.053-0.141,4.865l-4.718,37.877h-10.079l4.275-34.431
			c0.246-1.56,0.305-2.894,0.208-4.008c-0.288-3.354-2.312-5.045-6.032-5.045c-2.182,0-4.137,0.801-5.863,2.43
			c-1.885,1.816-3.021,4.265-3.367,7.373l-4.24,33.681H1252.092L1252.092,359.896z M1297.814,317.153l0.938-7.463h6.906
			l1.827-14.273h10.088l-1.836,14.273h8.202l-0.926,7.463h-8.213l-3.726,30.048c-0.099,0.938-0.129,1.707-0.079,2.329
			c0.181,2.005,1.515,3.01,4,3.01c1.488,0,2.727-0.136,3.7-0.384l-0.938,7.553c-2.241,0.57-4.996,0.856-8.233,0.856
			c-2.912,0-5.004-0.414-6.257-1.233c-1.521-0.987-2.392-2.754-2.605-5.31c-0.13-1.512-0.077-3.379,0.157-5.617l3.898-31.252
			H1297.814z M1360.752,320.728l-3.556,28.806c-0.026,0.313-0.026,0.632-0.011,0.946c0.157,1.746,0.868,2.604,2.191,2.604
			c0.738,0,1.28-0.118,1.646-0.364l-0.83,6.604c-1.805,0.819-3.475,1.243-5.033,1.243c-4.785,0-7.336-1.826-7.657-5.469
			c-0.031-0.455-0.04-0.908-0.021-1.345l-0.178,0.089c-3.297,4.906-7.788,7.365-13.445,7.365c-7.039,0-10.829-3.198-11.391-9.604
			c-0.118-1.383-0.088-2.861,0.079-4.48c0.662-5.173,2.211-8.973,4.607-11.381c1.888-1.809,4.896-3.276,9.031-4.404l8.123-2.141
			c2.132-0.555,3.663-1.204,4.591-1.954c1.165-0.931,1.866-2.431,2.132-4.482c0.093-1.057,0.103-1.98,0.029-2.794
			c-0.275-3.107-2.279-4.677-6.011-4.677c-5.104,0-8.056,3.216-8.864,9.623h-9.516c0.699-5.548,2.485-9.623,5.37-12.24
			c3.169-2.843,7.937-4.282,14.279-4.282c9.151,0,13.988,3.117,14.53,9.356C1360.939,318.674,1360.899,319.681,1360.752,320.728z
			 M1348.577,341.792l1.052-8.4c-1.105,0.819-3.031,1.688-5.736,2.615c-3.514,1.116-5.508,1.807-5.99,2.064
			c-2.922,1.303-4.648,3.996-5.173,8.111c-0.108,0.812-0.129,1.59-0.069,2.34c0.31,3.483,2.104,5.229,5.399,5.229
			C1344.09,353.755,1347.604,349.769,1348.577,341.792z M1366.119,359.896l6.271-50.203h10.067l-0.907,7.85h0.196
			c3.196-6.109,7.442-9.148,12.733-9.148c0.74,0,1.529,0.127,2.369,0.361l-1.254,10.277c-1.474-0.375-2.845-0.563-4.166-0.563
			c-6.712,0-10.542,3.79-11.5,11.396l-3.73,30.037h-10.077L1366.119,359.896L1366.119,359.896z"/>
	</g>
	<rect x="1515.678" y="188.342" display="inline" width="976.129" height="183.438"/>
	
		<rect x="1527.918" y="200.576" display="inline" fill="none" stroke="#FFFFFF" stroke-width="7" stroke-miterlimit="10" width="951.646" height="158.964"/>
	<g display="inline">
		<path fill="#FFFFFF" d="M1691.404,312.778h-14.383l-5.715-14.873h-26.188l-5.406,14.873h-14.028l25.518-65.497h13.988
			L1691.404,312.778z M1667.061,286.869l-9.031-24.304l-8.845,24.304H1667.061z"/>
		<path fill="#FFFFFF" d="M1698.577,312.778v-65.497h12.854l26.818,43.754v-43.754h12.277v65.497h-13.273l-26.405-42.699v42.699
			H1698.577z"/>
		<path fill="#FFFFFF" d="M1761.159,291.479l12.871-1.254c0.771,4.32,2.341,7.49,4.71,9.506c2.369,2.031,5.567,3.041,9.584,3.041
			c4.253,0,7.477-0.899,9.637-2.696c2.149-1.816,3.235-3.919,3.235-6.328c0-1.558-0.454-2.871-1.36-3.948
			c-0.916-1.095-2.496-2.031-4.76-2.843c-1.551-0.531-5.094-1.489-10.593-2.86c-7.107-1.748-12.062-3.908-14.925-6.467
			c-4.027-3.613-6.03-8.007-6.03-13.188c0-3.338,0.947-6.457,2.843-9.358c1.887-2.901,4.608-5.113,8.162-6.633
			c3.564-1.521,7.868-2.281,12.896-2.281c8.229,0,14.412,1.798,18.563,5.4c4.166,3.602,6.338,8.419,6.558,14.442l-13.229,0.57
			c-0.572-3.365-1.786-5.782-3.632-7.265c-1.865-1.474-4.66-2.201-8.391-2.201c-3.843,0-6.854,0.779-9.022,2.357
			c-1.412,1.019-2.103,2.367-2.103,4.065c0,1.551,0.647,2.882,1.975,3.979c1.659,1.4,5.704,2.861,12.141,4.393
			c6.438,1.501,11.204,3.08,14.275,4.697c3.098,1.632,5.497,3.854,7.243,6.664c1.759,2.812,2.616,6.3,2.616,10.435
			c0,3.742-1.048,7.267-3.132,10.542c-2.094,3.288-5.03,5.727-8.846,7.326c-3.829,1.589-8.565,2.378-14.253,2.378
			c-8.281,0-14.638-1.915-19.089-5.745C1764.676,304.38,1762.03,298.793,1761.159,291.479z"/>
		<path fill="#FFFFFF" d="M1849.448,295.328v-12.565h24.657v12.565H1849.448z"/>
		<path fill="#FFFFFF" d="M1906.994,312.778v-65.497h12.883l26.802,43.754v-43.754h12.299v65.497h-13.278l-26.404-42.699v42.699
			H1906.994z"/>
		<path fill="#FFFFFF" d="M1967.453,262.972c0-5.301,1.413-9.428,4.235-12.389c2.804-2.941,6.574-4.413,11.272-4.413
			c4.68,0,8.438,1.477,11.271,4.433c2.823,2.981,4.235,7.087,4.235,12.369c0,5.262-1.412,9.377-4.228,12.328
			c-2.804,2.942-6.574,4.424-11.281,4.424c-4.698,0-8.472-1.471-11.272-4.4C1968.866,272.388,1967.453,268.263,1967.453,262.972z
			 M1976.904,263.051c0,3.286,0.532,5.616,1.646,6.998c1.104,1.392,2.524,2.073,4.286,2.073c1.755,0,3.188-0.684,4.312-2.073
			c1.114-1.382,1.678-3.712,1.678-6.998c0-3.268-0.562-5.606-1.678-6.979c-1.126-1.391-2.559-2.093-4.312-2.093
			c-1.762,0-3.184,0.691-4.286,2.062C1977.437,257.414,1976.904,259.752,1976.904,263.051z"/>
		<path fill="#FFFFFF" d="M2053.65,312.778v-13.166h-26.799v-11.006l28.408-41.591h10.543v41.55h8.133v11.047h-8.133v13.166H2053.65
			L2053.65,312.778z M2053.65,288.565v-22.377l-15.043,22.377H2053.65z"/>
		<path fill="#FFFFFF" d="M2112.047,312.778h-12.545v-47.301c-4.58,4.285-9.989,7.453-16.217,9.516v-11.411
			c3.274-1.065,6.83-3.099,10.679-6.089c3.841-3.001,6.476-6.495,7.918-10.478h10.165V312.778z"/>
		<path fill="#FFFFFF" d="M2133.509,312.778v-12.555h12.546v12.555H2133.509z"/>
		<path fill="#FFFFFF" d="M2167.02,277.452c-3.257-1.383-5.596-3.268-7.078-5.666c-1.479-2.389-2.229-5.023-2.229-7.877
			c0-4.887,1.716-8.924,5.142-12.122c3.396-3.179,8.243-4.771,14.53-4.771c6.208,0,11.064,1.593,14.49,4.771
			c3.445,3.198,5.164,7.235,5.164,12.122c0,3.029-0.789,5.744-2.38,8.104c-1.569,2.379-3.78,4.188-6.646,5.438
			c3.623,1.45,6.396,3.573,8.282,6.386c1.904,2.794,2.834,6.023,2.834,9.695c0,6.05-1.926,10.955-5.786,14.736
			c-3.848,3.778-8.979,5.686-15.377,5.686c-5.963,0-10.92-1.57-14.877-4.698c-4.696-3.703-7.026-8.766-7.026-15.192
			c0-3.554,0.889-6.801,2.646-9.762C2160.466,281.342,2163.229,279.051,2167.02,277.452z M2168.45,292.86
			c0,3.445,0.877,6.14,2.646,8.084c1.784,1.945,3.997,2.883,6.643,2.883c2.599,0,4.738-0.907,6.438-2.792
			c1.707-1.839,2.558-4.541,2.558-8.037c0-3.08-0.88-5.546-2.604-7.401c-1.729-1.854-3.919-2.785-6.564-2.785
			c-3.067,0-5.35,1.06-6.856,3.17C2169.204,288.093,2168.45,290.394,2168.45,292.86z M2169.606,264.797
			c0,2.509,0.72,4.453,2.123,5.864c1.411,1.393,3.306,2.093,5.655,2.093c2.378,0,4.295-0.711,5.717-2.122
			c1.43-1.412,2.149-3.365,2.149-5.874c0-2.35-0.711-4.243-2.121-5.655c-1.424-1.412-3.3-2.123-5.618-2.123
			c-2.397,0-4.332,0.711-5.754,2.145C2170.336,260.553,2169.606,262.438,2169.606,264.797z"/>
		<path fill="#FFFFFF" d="M2228.359,247.016c6.348,0,11.292,2.265,14.876,6.785c4.265,5.37,6.405,14.255,6.405,26.681
			c0,12.393-2.162,21.293-6.438,26.725c-3.554,4.453-8.498,6.703-14.846,6.703c-6.366,0-11.51-2.447-15.408-7.354
			c-3.906-4.904-5.863-13.643-5.863-26.205c0-12.33,2.144-21.216,6.437-26.625C2217.066,249.261,2222.011,247.016,2228.359,247.016z
			 M2228.359,257.435c-1.521,0-2.863,0.476-4.076,1.44c-1.176,0.967-2.104,2.715-2.755,5.212c-0.857,3.246-1.294,8.717-1.294,16.395
			c0,7.69,0.386,12.951,1.156,15.847c0.771,2.872,1.748,4.776,2.922,5.733c1.187,0.947,2.526,1.439,4.048,1.439
			s2.884-0.503,4.074-1.461c1.188-0.977,2.114-2.703,2.768-5.212c0.865-3.218,1.303-8.656,1.303-16.347
			c0-7.681-0.396-12.961-1.174-15.844c-0.771-2.873-1.737-4.799-2.911-5.766C2231.232,257.907,2229.879,257.435,2228.359,257.435z"
			/>
		<path fill="#FFFFFF" d="M2258.021,259.831V248.18h42.94v9.115c-3.545,3.476-7.14,8.489-10.812,15.004
			c-3.664,6.524-6.467,13.466-8.381,20.8c-1.929,7.362-2.854,13.907-2.834,19.684h-12.111c0.219-9.041,2.083-18.281,5.604-27.696
			c3.535-9.407,8.243-17.815,14.146-25.252L2258.021,259.831L2258.021,259.831z"/>
		<path fill="#FFFFFF" d="M2310.18,295.328v-12.565h24.646v12.565H2310.18z"/>
		<path fill="#FFFFFF" d="M2381.804,301.104v11.676h-44.024c0.484-4.395,1.916-8.586,4.294-12.534
			c2.39-3.938,7.102-9.171,14.126-15.696c5.646-5.27,9.121-8.845,10.402-10.719c1.729-2.598,2.598-5.163,2.598-7.689
			c0-2.804-0.76-4.955-2.26-6.455c-1.491-1.513-3.584-2.252-6.229-2.252c-2.627,0-4.709,0.779-6.262,2.358
			c-1.539,1.579-2.437,4.207-2.674,7.868l-12.518-1.253c0.75-6.91,3.088-11.867,7.026-14.877c3.929-3.01,8.845-4.515,14.718-4.515
			c6.485,0,11.561,1.731,15.252,5.226c3.7,3.493,5.545,7.817,5.545,12.999c0,2.953-0.529,5.766-1.578,8.432
			c-1.064,2.664-2.74,5.458-5.031,8.371c-1.531,1.936-4.266,4.729-8.225,8.35c-3.979,3.646-6.484,6.071-7.529,7.248
			c-1.059,1.172-1.916,2.349-2.577,3.463H2381.804L2381.804,301.104z"/>
	</g>
</g>
<g id="Layer_2">
	<g>
		<path fill="#007990" d="M79.184,125.403c25.675-12.97,55.904-20.469,88.301-20.469c17.52,0,34.406,2.193,50.294,6.255
			c-1.533-0.051-3.033-0.228-4.591-0.228c-71.897,0-130.623,55.134-133.896,124.05c-0.039,0.188-0.063,0.379-0.108,0.572V125.403z
			 M263.396,257.414c-10.038,25.408-47.015,44.301-91.23,44.301c-37.104,0-69.086-13.306-84.377-32.594
			c13.179,55.288,64.266,96.56,125.398,96.56c17.813,0,34.781-3.484,50.209-9.822V257.414z"/>
		<path fill="#79A342" d="M213.188,371.08c-68.559,0-125.134-50.116-133.107-114.495l0.094,1.322l-58.343,53.6
			c29.12,41.073,83.425,68.733,145.654,68.733c23.03,0,44.983-3.802,64.974-10.661C226.149,370.478,219.753,371.08,213.188,371.08z
			 M172.164,185.527c44.218,0,81.192,18.89,91.23,44.302v-0.252l56.035-58.998c-23.213-32.724-62.119-54.212-106.244-54.212
			c-63.708,0-116.467,44.793-126.832,103.591C101.028,199.683,133.889,185.527,172.164,185.527z"/>
		<path fill="#007990" d="M294.668,358.226l70.756-172.625h35.306l23.759,172.625h-28.766l-5.385-42.312h-50.529l-16.375,42.312
			H294.668z M347.799,293.917h40.86l-9.362-85.113h-0.481L347.799,293.917z M424.488,358.226l21.691-172.625h33.601l33.953,128.63
			h0.481l16.102-128.63h26.114l-21.688,172.625H501.13l-33.518-132.014h-0.482l-16.526,132.014H424.488z M551.599,304.786h27.561
			l-0.593,4.354c-0.45,4.035-0.535,7.737-0.232,11.125c1.194,13.7,9.368,20.541,24.521,20.541c8.223,0,15.08-2.559,20.6-7.721
			c4.907-4.688,7.789-10.491,8.636-17.423c0.377-3.05,0.456-5.884,0.226-8.459c-0.872-9.989-7.88-17.403-21.045-22.238
			l-17.969-6.524c-18.979-6.922-29.165-18.293-30.536-34.088c-0.354-4.027-0.172-8.46,0.531-13.297
			c1.872-15.473,8.206-27.476,18.974-36.024c10.779-8.537,24.391-12.812,40.841-12.812c27.229,0,41.76,10.39,43.576,31.182
			c0.366,4.196,0.212,8.954-0.456,14.265l-0.624,3.875h-27.561l0.647-3.623c0.377-3.065,0.465-5.809,0.251-8.228
			c-0.977-11.12-8.146-16.677-21.524-16.677c-15.473,0-24.177,8.292-26.114,24.904c-0.418,2.571-0.536,4.91-0.355,6.999
			c0.835,9.516,8.332,16.934,22.49,22.244l17.761,6.771c18.508,7.101,28.418,18.133,29.728,33.117
			c0.337,3.869,0.219,8.073-0.352,12.564c-4.396,34.666-25.618,51.99-63.646,51.99c-28.69,0-44.104-12.33-46.258-36.979
			c-0.426-4.854-0.319-10.087,0.313-15.726L551.599,304.786z M692.558,273.701l26.142-63.772h13.044l8.776,63.772h-10.626
			l-1.994-15.636h-18.665l-6.056,15.636H692.558z M712.188,249.942h15.094l-3.46-31.435h-0.172L712.188,249.942z M744.361,277.817
			h9.114c-0.029,0.346-0.029,0.681-0.009,0.978c0.124,1.361,0.741,2.507,1.864,3.396c1.113,0.891,2.603,1.345,4.444,1.345
			c2.502,0,4.577-0.812,6.228-2.408c1.644-1.619,2.642-3.817,2.997-6.612l1.011-7.777h-0.178c-2.477,4.4-6.389,6.613-11.747,6.613
			c-7.094,0-11.014-4.371-11.775-13.131c-0.277-3.1-0.144-6.791,0.374-11.075c2.074-16.499,8.203-24.745,18.385-24.745
			c2.688,0,4.95,0.744,6.809,2.239c1.673,1.368,2.61,3.001,2.839,4.91h0.176l0.735-5.897h9.109l-5.649,45.733
			c-1.593,12.495-8.365,18.767-20.339,18.767c-9.055,0-13.852-3.158-14.402-9.479C744.266,279.724,744.271,278.767,744.361,277.817z
			 M756.515,248.16c-0.606,4.704-0.799,8.188-0.61,10.446c0.42,4.709,2.373,7.06,5.896,7.06c5.53,0,9.022-5.687,10.479-17.058
			c0.452-3.696,0.57-6.703,0.37-9.027c-0.431-4.998-2.43-7.507-6.012-7.507c-3.22,0-5.639,1.584-7.271,4.738
			C758.085,239.197,757.129,242.982,756.515,248.16z M823.57,250.93h-25.105l-0.284,2.764c-0.402,2.979-0.516,5.418-0.355,7.323
			c0.438,4.887,2.61,7.325,6.544,7.325c2.979,0,5.294-1.432,6.949-4.284c1.091-1.847,1.769-3.988,2.028-6.427h9.104
			c-0.668,5.302-2.693,9.517-6.086,12.636c-3.38,3.118-7.705,4.688-12.939,4.688c-4.045,0-7.182-0.771-9.406-2.33
			c-3.167-2.188-4.998-6.089-5.482-11.696c-0.259-2.979-0.151-6.495,0.33-10.533c2.177-17.334,9.196-25.998,21.041-25.998
			c9.052,0,13.938,4.084,14.649,12.239c0.221,2.562,0.102,5.621-0.355,9.2L823.57,250.93z M798.398,219.391l9.772-12.863h9.645
			l6.303,12.863h-8.127l-3.812-7.857l-6.104,7.857H798.398z M799.315,244.319h15.46l0.312-2.595c0.214-1.604,0.27-3.035,0.155-4.29
			c-0.373-4.284-2.438-6.427-6.188-6.427c-5.359,0-8.571,4.106-9.646,12.324L799.315,244.319z M828.683,273.701l5.985-48.053h9.111
			l-0.671,5.627h0.271c3.173-4.58,7.553-6.879,13.146-6.879c6.49,0,9.986,2.807,10.475,8.398c0.118,1.368,0.078,2.922-0.13,4.64
			l-4.523,36.267h-9.644l4.098-32.959c0.227-1.491,0.291-2.769,0.195-3.846c-0.279-3.207-2.199-4.822-5.776-4.822
			c-2.096,0-3.956,0.786-5.604,2.326c-1.811,1.727-2.886,4.081-3.223,7.057l-4.067,32.244H828.683z M897.183,256.188h9.11
			c-1.138,6.142-3.062,10.689-5.779,13.683c-3.033,3.385-7.384,5.083-13.039,5.083c-9.234,0-14.259-4.768-15.092-14.294
			c-0.272-3.088-0.146-6.752,0.381-10.985c1.016-8.1,3.021-14.169,6.005-18.222c3.46-4.645,8.47-6.994,15.015-7.057
			c8.992-0.056,13.838,4.017,14.559,12.239c0.142,1.608,0.078,3.272-0.19,4.999h-9.649c0.228-1.484,0.298-2.823,0.188-4.022
			c-0.361-4.101-2.295-6.131-5.804-6.066c-3.214,0.06-5.652,1.752-7.324,5.09c-1.307,2.743-2.366,7.092-3.148,13.039
			c-0.562,4.532-0.725,8.035-0.514,10.542c0.443,5.063,2.599,7.591,6.469,7.591C893.256,267.868,896.195,263.999,897.183,256.188z
			 M911.746,273.701l5.987-48.053h9.648l-5.993,48.053H911.746z M918.673,218.951l1.113-9.644h9.658l-1.125,9.644H918.673z
			 M967.343,236.216l-3.406,27.562c-0.029,0.309-0.036,0.604-0.011,0.897c0.146,1.668,0.851,2.511,2.104,2.511
			c0.71,0,1.229-0.119,1.569-0.367l-0.779,6.34c-1.723,0.777-3.317,1.174-4.812,1.174c-4.587,0-7.032-1.748-7.333-5.241
			c-0.04-0.425-0.053-0.851-0.025-1.284l-0.172,0.09c-3.163,4.709-7.452,7.06-12.872,7.06c-6.727,0-10.359-3.067-10.896-9.2
			c-0.111-1.303-0.091-2.74,0.074-4.293c0.644-4.938,2.11-8.568,4.408-10.887c1.811-1.729,4.703-3.13,8.654-4.201l7.771-2.054
			c2.037-0.536,3.498-1.165,4.393-1.885c1.11-0.885,1.793-2.314,2.046-4.283c0.079-1.007,0.093-1.906,0.027-2.677
			c-0.267-2.98-2.173-4.467-5.75-4.467c-4.883,0-7.715,3.065-8.484,9.2h-9.11c0.66-5.306,2.38-9.2,5.141-11.696
			c3.032-2.744,7.597-4.115,13.666-4.115c8.752,0,13.387,2.984,13.908,8.952C967.529,234.245,967.49,235.193,967.343,236.216z
			 M955.698,256.378l0.998-8.04c-1.063,0.775-2.896,1.604-5.499,2.502c-3.354,1.066-5.266,1.727-5.72,1.963
			c-2.809,1.255-4.462,3.841-4.952,7.771c-0.111,0.771-0.136,1.521-0.079,2.229c0.298,3.337,2.014,5.005,5.18,5.005
			C951.395,267.808,954.762,263.999,955.698,256.378z M994.547,273.701l8.016-63.772h12.416l12.538,47.516h0.183l5.946-47.516h9.65
			l-8.022,63.772h-12.416l-12.384-48.763h-0.18l-6.104,48.763H994.547z M1081.405,236.216l-3.396,27.562
			c-0.036,0.309-0.043,0.604-0.021,0.897c0.144,1.668,0.851,2.511,2.101,2.511c0.709,0,1.239-0.119,1.579-0.367l-0.791,6.34
			c-1.724,0.777-3.32,1.174-4.812,1.174c-4.584,0-7.028-1.748-7.333-5.241c-0.036-0.425-0.043-0.851-0.025-1.284l-0.169,0.09
			c-3.166,4.709-7.453,7.06-12.861,7.06c-6.737,0-10.37-3.067-10.897-9.2c-0.115-1.303-0.094-2.74,0.068-4.293
			c0.643-4.938,2.104-8.568,4.407-10.887c1.814-1.729,4.697-3.13,8.649-4.201l7.775-2.054c2.038-0.536,3.503-1.165,4.394-1.885
			c1.109-0.885,1.791-2.314,2.042-4.283c0.083-1.007,0.104-1.906,0.029-2.677c-0.255-2.98-2.175-4.467-5.754-4.467
			c-4.881,0-7.705,3.065-8.485,9.2h-9.105c0.668-5.306,2.381-9.2,5.145-11.696c3.03-2.744,7.586-4.115,13.662-4.115
			c8.762,0,13.396,2.984,13.913,8.952C1081.584,234.245,1081.549,235.193,1081.405,236.216z M1069.765,256.378l0.991-8.04
			c-1.062,0.775-2.897,1.604-5.492,2.502c-3.367,1.066-5.273,1.727-5.729,1.963c-2.811,1.255-4.462,3.841-4.943,7.771
			c-0.122,0.771-0.141,1.521-0.075,2.229c0.287,3.337,2.01,5.005,5.169,5.005C1065.461,267.808,1068.82,263.999,1069.765,256.378z
			 M1112.084,256.188h9.115c-1.135,6.142-3.061,10.689-5.776,13.683c-3.04,3.385-7.392,5.083-13.041,5.083
			c-9.229,0-14.267-4.768-15.097-14.294c-0.273-3.088-0.142-6.752,0.377-10.985c1.021-8.1,3.026-14.169,6.008-18.222
			c3.466-4.645,8.464-6.994,15.015-7.057c8.988-0.056,13.844,4.017,14.559,12.239c0.143,1.608,0.075,3.272-0.188,4.999h-9.65
			c0.232-1.484,0.286-2.823,0.192-4.022c-0.366-4.101-2.294-6.131-5.799-6.066c-3.221,0.06-5.662,1.752-7.335,5.09
			c-1.312,2.743-2.358,7.092-3.148,13.039c-0.562,4.532-0.725,8.035-0.51,10.542c0.442,5.063,2.599,7.591,6.468,7.591
			C1108.156,267.868,1111.098,263.999,1112.084,256.188z M1126.654,273.701l5.987-48.053h9.648l-5.991,48.053H1126.654z
			 M1133.573,218.951l1.127-9.644h9.641l-1.117,9.644H1133.573z M1147.146,249.675c1.034-8.1,3.033-14.169,6.013-18.222
			c3.46-4.704,8.46-7.057,15.01-7.057c9.301,0,14.355,4.795,15.191,14.386c0.271,3.035,0.137,6.668-0.386,10.893
			c-2.104,16.86-9.137,25.279-21.107,25.279c-9.171,0-14.186-4.944-15.051-14.825
			C1146.551,257.089,1146.656,253.604,1147.146,249.675z M1156.806,249.675c-0.642,5.006-0.847,8.758-0.625,11.253
			c0.388,4.591,2.59,6.88,6.583,6.88c3.331,0,5.793-1.49,7.378-4.461c1.322-2.564,2.389-7.117,3.188-13.672
			c0.546-4.526,0.721-8.04,0.507-10.542c-0.441-5.06-2.63-7.587-6.561-7.587c-3.218,0-5.661,1.694-7.322,5.09
			C1158.633,239.321,1157.578,243.664,1156.806,249.675z M1187.397,273.701l5.986-48.053h9.11l-0.671,5.627h0.261
			c3.181-4.58,7.562-6.879,13.156-6.879c6.49,0,9.986,2.807,10.478,8.398c0.115,1.368,0.078,2.922-0.142,4.64l-4.517,36.267h-9.643
			l4.084-32.959c0.232-1.491,0.303-2.769,0.202-3.846c-0.278-3.207-2.211-4.822-5.771-4.822c-2.089,0-3.959,0.786-5.606,2.326
			c-1.812,1.727-2.894,4.081-3.224,7.057l-4.067,32.244H1187.397z M1266.562,236.216l-3.404,27.562
			c-0.03,0.309-0.03,0.604-0.011,0.897c0.146,1.668,0.858,2.511,2.104,2.511c0.714,0,1.233-0.119,1.579-0.367l-0.788,6.34
			c-1.721,0.777-3.326,1.174-4.81,1.174c-4.589,0-7.037-1.748-7.344-5.241c-0.031-0.425-0.04-0.851-0.021-1.284l-0.168,0.09
			c-3.168,4.709-7.456,7.06-12.871,7.06c-6.729,0-10.361-3.067-10.892-9.2c-0.125-1.303-0.101-2.74,0.062-4.293
			c0.646-4.938,2.114-8.568,4.418-10.887c1.805-1.729,4.692-3.13,8.646-4.201l7.775-2.054c2.03-0.536,3.493-1.165,4.392-1.885
			c1.105-0.885,1.786-2.314,2.034-4.283c0.09-1.007,0.099-1.906,0.028-2.677c-0.258-2.98-2.161-4.467-5.743-4.467
			c-4.878,0-7.707,3.065-8.485,9.2h-9.109c0.666-5.306,2.381-9.2,5.139-11.696c3.035-2.744,7.603-4.115,13.672-4.115
			c8.746,0,13.385,2.984,13.909,8.952C1266.752,234.245,1266.712,235.193,1266.562,236.216z M1254.924,256.378l0.998-8.04
			c-1.066,0.775-2.902,1.604-5.499,2.502c-3.356,1.066-5.269,1.727-5.728,1.963c-2.807,1.255-4.455,3.841-4.943,7.771
			c-0.112,0.771-0.14,1.521-0.072,2.229c0.287,3.337,2.014,5.005,5.167,5.005C1250.617,267.808,1253.987,263.999,1254.924,256.378z
			 M1272.157,273.701l8.006-63.772h9.653l-8.016,63.772H1272.157z M1337.533,273.701l0.739-5.896h-0.176
			c-2.498,4.771-6.317,7.146-11.441,7.146c-7.787,0-12.103-4.646-12.921-13.938c-0.287-3.324-0.129-7.323,0.483-11.974
			c1.185-9.643,3.571-16.431,7.153-20.354c2.666-2.857,6.229-4.293,10.69-4.293c5.37,0,8.726,2.299,10.077,6.879h0.18l2.688-21.347
			h9.663l-8.025,63.772h-9.11V273.701z M1340.486,250.219c0.563-4.655,0.732-8.195,0.515-10.638
			c-0.441-4.998-2.771-7.507-7.008-7.507c-2.795,0-4.906,1.288-6.314,3.846c-1.412,2.562-2.521,7.091-3.328,13.577
			c-0.572,4.411-0.739,7.857-0.523,10.363c0.437,4.937,2.549,7.414,6.367,7.414c3.1,0,5.488-1.549,7.188-4.648
			C1338.76,260.011,1339.783,255.874,1340.486,250.219z M1392.192,250.93h-25.111l-0.298,2.764
			c-0.396,2.979-0.503,5.418-0.345,7.323c0.438,4.887,2.605,7.325,6.544,7.325c2.982,0,5.301-1.432,6.949-4.284
			c1.087-1.847,1.768-3.988,2.021-6.427h9.11c-0.671,5.302-2.687,9.517-6.08,12.636c-3.395,3.118-7.709,4.688-12.938,4.688
			c-4.059,0-7.197-0.771-9.408-2.33c-3.177-2.188-5.004-6.089-5.488-11.696c-0.255-2.979-0.146-6.495,0.327-10.533
			c2.191-17.334,9.188-25.998,21.045-25.998c9.053,0,13.927,4.084,14.648,12.239c0.227,2.562,0.099,5.621-0.355,9.2L1392.192,250.93
			z M1367.928,244.319h15.469l0.297-2.595c0.229-1.604,0.275-3.035,0.168-4.29c-0.377-4.284-2.438-6.427-6.188-6.427
			c-5.354,0-8.568,4.106-9.646,12.324L1367.928,244.319z M691.49,339.272h10.639l-0.226,1.688c-0.179,1.562-0.208,2.979-0.093,4.283
			c0.463,5.291,3.61,7.938,9.465,7.938c3.179,0,5.824-0.988,7.951-2.99c1.892-1.799,3.012-4.039,3.331-6.713
			c0.144-1.186,0.183-2.271,0.09-3.275c-0.341-3.842-3.041-6.713-8.123-8.579l-6.935-2.507c-7.33-2.678-11.259-7.076-11.792-13.168
			c-0.141-1.553-0.064-3.277,0.198-5.146c0.729-5.973,3.172-10.61,7.326-13.907c4.16-3.297,9.415-4.937,15.771-4.937
			c10.506,0,16.12,4.008,16.818,12.033c0.146,1.628,0.081,3.464-0.174,5.506l-0.241,1.501h-10.642l0.251-1.398
			c0.146-1.187,0.181-2.242,0.104-3.17c-0.386-4.293-3.147-6.437-8.316-6.437c-5.974,0-9.329,3.196-10.083,9.604
			c-0.158,0.996-0.201,1.902-0.129,2.701c0.322,3.663,3.209,6.536,8.678,8.59l6.853,2.606c7.148,2.742,10.978,6.996,11.477,12.779
			c0.136,1.514,0.083,3.119-0.133,4.856c-1.694,13.386-9.887,20.067-24.566,20.067c-11.072,0-17.022-4.748-17.854-14.283
			c-0.166-1.864-0.119-3.879,0.119-6.051L691.49,339.272z M776.942,320.728l-3.546,28.806c-0.04,0.313-0.04,0.632-0.014,0.946
			c0.155,1.746,0.876,2.604,2.186,2.604c0.74,0,1.296-0.118,1.648-0.364l-0.826,6.604c-1.795,0.819-3.467,1.243-5.029,1.243
			c-4.787,0-7.344-1.826-7.66-5.469c-0.029-0.455-0.049-0.908-0.022-1.345l-0.176,0.089c-3.309,4.906-7.784,7.365-13.446,7.365
			c-7.035,0-10.833-3.198-11.386-9.604c-0.118-1.383-0.1-2.861,0.067-4.48c0.671-5.173,2.211-8.973,4.61-11.381
			c1.896-1.809,4.91-3.276,9.042-4.404l8.123-2.141c2.128-0.555,3.649-1.204,4.583-1.954c1.162-0.931,1.872-2.431,2.125-4.482
			c0.102-1.057,0.111-1.98,0.04-2.794c-0.272-3.107-2.275-4.677-6.009-4.677c-5.1,0-8.051,3.216-8.862,9.623h-9.523
			c0.707-5.548,2.495-9.623,5.377-12.24c3.167-2.843,7.932-4.282,14.272-4.282c9.15,0,13.992,3.117,14.541,9.356
			C777.133,318.674,777.097,319.681,776.942,320.728z M764.781,341.792l1.043-8.4c-1.108,0.819-3.021,1.688-5.749,2.615
			c-3.507,1.116-5.504,1.807-5.981,2.064c-2.936,1.303-4.653,3.996-5.167,8.111c-0.113,0.812-0.141,1.59-0.073,2.34
			c0.301,3.483,2.104,5.229,5.396,5.229C760.291,353.755,763.794,349.769,764.781,341.792z M807.977,359.896l0.708-5.873h-0.288
			c-3.241,4.797-7.832,7.188-13.741,7.188c-6.597,0-10.161-3.183-10.725-9.517c-0.172-1.995-0.086-4.295,0.248-6.909l4.401-35.093
			h10.072l-4.512,36.039c-0.088,1.045-0.104,1.953-0.043,2.692c0.279,3.181,2.246,4.759,5.926,4.759c2.301,0,4.34-0.723,6.105-2.189
			c1.763-1.461,2.822-3.521,3.145-6.208l4.402-35.093h10.078l-6.259,50.203H807.977L807.977,359.896z M801.906,303.167l7.319-13.446
			h11.204l-11.613,13.446H801.906z M852.865,359.896l0.771-6.141h-0.184c-2.614,4.977-6.602,7.454-11.947,7.454
			c-8.155,0-12.649-4.849-13.5-14.552c-0.308-3.483-0.139-7.66,0.499-12.506c1.228-10.079,3.726-17.176,7.473-21.282
			c2.789-2.979,6.508-4.481,11.183-4.481c5.601,0,9.105,2.399,10.521,7.178h0.181l2.812-22.299h10.08l-8.36,66.629H852.865
			L852.865,359.896z M855.955,335.354c0.562-4.855,0.74-8.561,0.52-11.104c-0.452-5.224-2.896-7.84-7.305-7.84
			c-2.929,0-5.13,1.343-6.604,4.01c-1.479,2.687-2.639,7.401-3.475,14.19c-0.599,4.611-0.779,8.226-0.556,10.83
			c0.45,5.162,2.672,7.738,6.655,7.738c3.232,0,5.736-1.631,7.502-4.847C854.142,345.591,855.222,341.278,855.955,335.354z
			 M909.955,336.104h-26.225l-0.305,2.893c-0.42,3.119-0.538,5.668-0.359,7.66c0.442,5.094,2.717,7.65,6.824,7.65
			c3.115,0,5.525-1.512,7.265-4.481c1.14-1.925,1.845-4.175,2.114-6.731h9.521c-0.695,5.549-2.813,9.94-6.356,13.219
			c-3.542,3.269-8.049,4.896-13.521,4.896c-4.234,0-7.51-0.812-9.826-2.42c-3.317-2.311-5.226-6.387-5.729-12.229
			c-0.276-3.119-0.154-6.781,0.345-11.019c2.279-18.104,9.605-27.156,21.987-27.156c9.453,0,14.554,4.267,15.297,12.796
			c0.24,2.664,0.107,5.873-0.372,9.604L909.955,336.104z M884.62,329.196h16.149l0.314-2.694c0.228-1.688,0.278-3.169,0.168-4.483
			c-0.389-4.479-2.545-6.729-6.459-6.729c-5.603,0-8.959,4.293-10.068,12.9L884.62,329.196z M938.512,339.272h10.638l-0.229,1.688
			c-0.175,1.562-0.203,2.979-0.084,4.283c0.458,5.291,3.61,7.938,9.456,7.938c3.174,0,5.822-0.988,7.949-2.99
			c1.9-1.799,3.006-4.039,3.338-6.713c0.145-1.186,0.175-2.271,0.088-3.275c-0.334-3.842-3.045-6.713-8.117-8.579l-6.944-2.507
			c-7.317-2.678-11.253-7.076-11.78-13.168c-0.141-1.553-0.067-3.277,0.201-5.146c0.727-5.973,3.169-10.61,7.326-13.907
			c4.16-3.297,9.412-4.937,15.758-4.937c10.514,0,16.129,4.008,16.82,12.033c0.144,1.628,0.094,3.464-0.172,5.506l-0.242,1.501
			H971.88l0.253-1.398c0.146-1.187,0.178-2.242,0.096-3.17c-0.372-4.293-3.146-6.437-8.312-6.437c-5.967,0-9.32,3.196-10.077,9.604
			c-0.162,0.996-0.201,1.902-0.14,2.701c0.327,3.663,3.227,6.536,8.688,8.59l6.849,2.606c7.146,2.742,10.976,6.996,11.483,12.779
			c0.125,1.514,0.079,3.119-0.143,4.856c-1.7,13.386-9.885,20.067-24.567,20.067c-11.074,0-17.021-4.748-17.854-14.283
			c-0.165-1.864-0.118-3.879,0.122-6.051L938.512,339.272z M1011.784,359.896l0.711-5.873h-0.284
			c-3.248,4.797-7.832,7.188-13.74,7.188c-6.594,0-10.169-3.183-10.729-9.517c-0.172-1.995-0.09-4.295,0.248-6.909l4.396-35.093
			h10.08l-4.515,36.039c-0.093,1.045-0.104,1.953-0.045,2.692c0.276,3.181,2.251,4.759,5.923,4.759c2.302,0,4.341-0.723,6.104-2.189
			c1.772-1.461,2.825-3.521,3.144-6.208l4.408-35.093h10.083l-6.264,50.203H1011.784L1011.784,359.896z M1028.992,376.331
			l8.274-66.641h9.525l-0.771,6.16h0.185c2.926-4.969,7.008-7.466,12.229-7.466c7.961,0,12.369,4.839,13.209,14.474
			c0.309,3.533,0.176,7.738-0.392,12.596c-1.227,9.516-3.826,16.445-7.8,20.809c-3.011,3.297-6.668,4.946-10.957,4.946
			c-5.593,0-9.104-2.392-10.518-7.187h-0.184l-2.727,22.309H1028.992L1028.992,376.331z M1043.709,334.241
			c-0.571,4.855-0.74,8.615-0.511,11.292c0.443,5.103,2.688,7.649,6.736,7.649c2.983,0,5.307-1.346,6.971-4.02
			c1.669-2.678,2.922-7.405,3.762-14.188c0.595-4.601,0.771-8.203,0.542-10.809c-0.446-5.164-2.693-7.761-6.738-7.761
			c-3.23,0-5.707,1.63-7.416,4.855C1045.615,324.004,1044.498,328.327,1043.709,334.241z M1076.365,359.896l8.371-66.629h10.077
			l-8.371,66.629H1076.365z M1134.483,336.104h-26.228l-0.303,2.893c-0.415,3.119-0.534,5.668-0.361,7.66
			c0.445,5.094,2.724,7.65,6.834,7.65c3.104,0,5.521-1.512,7.254-4.481c1.138-1.925,1.849-4.175,2.125-6.731h9.516
			c-0.692,5.549-2.812,9.94-6.364,13.219c-3.54,3.269-8.044,4.896-13.513,4.896c-4.241,0-7.511-0.812-9.832-2.42
			c-3.313-2.311-5.221-6.387-5.729-12.229c-0.271-3.119-0.152-6.781,0.341-11.019c2.287-18.104,9.606-27.156,21.993-27.156
			c9.449,0,14.555,4.267,15.295,12.796c0.23,2.664,0.104,5.873-0.37,9.604L1134.483,336.104z M1109.148,329.196h16.146l0.326-2.694
			c0.229-1.688,0.276-3.169,0.162-4.483c-0.384-4.479-2.542-6.729-6.461-6.729c-5.601,0-8.958,4.293-10.072,12.9L1109.148,329.196z
			 M1140.291,359.896l6.259-50.203h9.519l-0.699,5.873h0.281c3.317-4.775,7.615-7.178,12.906-7.178c5.973,0,9.561,2.559,10.74,7.66
			c3.662-5.104,8.199-7.66,13.608-7.66c6.597,0,10.155,3.002,10.673,8.973c0.117,1.297,0.091,2.758-0.078,4.373l-4.792,38.162
			h-10.079l4.279-34.431c0.229-1.619,0.298-2.981,0.195-4.106c-0.284-3.297-1.979-4.943-5.098-4.943c-2.171,0-4.126,0.801-5.85,2.43
			c-1.896,1.816-3.021,4.268-3.373,7.373l-4.242,33.684h-10.079l4.272-34.434c0.229-1.619,0.303-2.979,0.198-4.104
			c-0.291-3.297-2.014-4.946-5.187-4.946c-2.18,0-4.104,0.801-5.768,2.43c-1.898,1.816-3.015,4.265-3.359,7.373l-4.257,33.681
			h-10.075v-0.004h0.004V359.896z M1246.75,336.104h-26.229l-0.307,2.893c-0.413,3.119-0.528,5.668-0.355,7.66
			c0.441,5.094,2.715,7.65,6.827,7.65c3.108,0,5.521-1.512,7.26-4.481c1.138-1.925,1.839-4.175,2.123-6.731h9.511
			c-0.689,5.549-2.812,9.94-6.357,13.219c-3.543,3.269-8.048,4.896-13.518,4.896c-4.229,0-7.509-0.812-9.825-2.42
			c-3.313-2.311-5.229-6.387-5.736-12.229c-0.271-3.119-0.154-6.781,0.341-11.019c2.283-18.104,9.609-27.156,21.993-27.156
			c9.451,0,14.562,4.267,15.298,12.796c0.237,2.664,0.109,5.873-0.373,9.604L1246.75,336.104z M1221.41,329.196h16.152l0.323-2.694
			c0.223-1.688,0.273-3.169,0.167-4.483c-0.396-4.479-2.553-6.729-6.469-6.729c-5.597,0-8.957,4.293-10.07,12.9L1221.41,329.196z
			 M1252.092,359.896l6.25-50.203h9.522l-0.701,5.873h0.275c3.317-4.775,7.897-7.178,13.751-7.178
			c6.781,0,10.424,2.922,10.938,8.766c0.117,1.434,0.078,3.053-0.141,4.865l-4.718,37.877h-10.079l4.275-34.431
			c0.246-1.56,0.305-2.894,0.208-4.008c-0.288-3.354-2.312-5.045-6.032-5.045c-2.182,0-4.137,0.801-5.863,2.43
			c-1.885,1.816-3.021,4.265-3.367,7.373l-4.24,33.681H1252.092L1252.092,359.896z M1297.814,317.153l0.938-7.463h6.906
			l1.827-14.273h10.088l-1.836,14.273h8.202l-0.926,7.463h-8.213l-3.726,30.048c-0.099,0.938-0.129,1.707-0.079,2.329
			c0.181,2.005,1.515,3.01,4,3.01c1.488,0,2.727-0.136,3.7-0.384l-0.938,7.553c-2.241,0.57-4.996,0.856-8.233,0.856
			c-2.912,0-5.004-0.414-6.257-1.233c-1.521-0.987-2.392-2.754-2.605-5.31c-0.13-1.512-0.077-3.379,0.157-5.617l3.898-31.252
			H1297.814z M1360.752,320.728l-3.556,28.806c-0.026,0.313-0.026,0.632-0.011,0.946c0.157,1.746,0.868,2.604,2.191,2.604
			c0.738,0,1.28-0.118,1.646-0.364l-0.83,6.604c-1.805,0.819-3.475,1.243-5.033,1.243c-4.785,0-7.336-1.826-7.657-5.469
			c-0.031-0.455-0.04-0.908-0.021-1.345l-0.178,0.089c-3.297,4.906-7.788,7.365-13.445,7.365c-7.039,0-10.829-3.198-11.391-9.604
			c-0.118-1.383-0.088-2.861,0.079-4.48c0.662-5.173,2.211-8.973,4.607-11.381c1.888-1.809,4.896-3.276,9.031-4.404l8.123-2.141
			c2.132-0.555,3.663-1.204,4.591-1.954c1.165-0.931,1.866-2.431,2.132-4.482c0.093-1.057,0.103-1.98,0.029-2.794
			c-0.275-3.107-2.279-4.677-6.011-4.677c-5.104,0-8.056,3.216-8.864,9.623h-9.516c0.699-5.548,2.485-9.623,5.37-12.24
			c3.169-2.843,7.937-4.282,14.279-4.282c9.151,0,13.988,3.117,14.53,9.356C1360.939,318.674,1360.899,319.681,1360.752,320.728z
			 M1348.577,341.792l1.052-8.4c-1.105,0.819-3.031,1.688-5.736,2.615c-3.514,1.116-5.508,1.807-5.99,2.064
			c-2.922,1.303-4.648,3.996-5.173,8.111c-0.108,0.812-0.129,1.59-0.069,2.34c0.31,3.483,2.104,5.229,5.399,5.229
			C1344.09,353.755,1347.604,349.769,1348.577,341.792z M1366.119,359.896l6.271-50.203h10.067l-0.907,7.85h0.196
			c3.196-6.109,7.442-9.148,12.733-9.148c0.74,0,1.529,0.127,2.369,0.361l-1.254,10.277c-1.474-0.375-2.845-0.563-4.166-0.563
			c-6.712,0-10.542,3.79-11.5,11.396l-3.73,30.037h-10.077L1366.119,359.896L1366.119,359.896z"/>
	</g>
	<rect x="1515.678" y="188.342" width="976.129" height="183.438"/>
	
		<rect x="1527.918" y="200.576" fill="none" stroke="#FFFFFF" stroke-width="7" stroke-miterlimit="10" width="951.646" height="158.964"/>
	<g>
		<g enable-background="new    ">
			<path fill="#FFFFFF" d="M1728.675,312.19h-14.334l-5.698-14.825h-26.088l-5.388,14.825h-13.979l25.421-65.266h13.934
				L1728.675,312.19z M1704.413,286.369l-8.993-24.218l-8.813,24.218H1704.413z"/>
			<path fill="#FFFFFF" d="M1735.798,312.19v-65.266h12.821l26.711,43.584v-43.584h12.243v65.266h-13.223l-26.312-42.561v42.561
				H1735.798z"/>
			<path fill="#FFFFFF" d="M1798.169,290.955l12.82-1.247c0.771,4.304,2.338,7.465,4.697,9.482c2.358,2.019,5.543,3.026,9.549,3.026
				c4.244,0,7.441-0.896,9.594-2.692c2.152-1.795,3.229-3.896,3.229-6.299c0-1.543-0.453-2.856-1.358-3.94
				c-0.905-1.083-2.485-2.025-4.741-2.826c-1.543-0.534-5.061-1.483-10.551-2.851c-7.063-1.75-12.021-3.901-14.869-6.455
				c-4.007-3.59-6.01-7.969-6.01-13.133c0-3.323,0.94-6.434,2.826-9.327c1.885-2.893,4.601-5.098,8.146-6.611
				c3.546-1.514,7.827-2.271,12.845-2.271c8.19,0,14.355,1.797,18.496,5.387c4.142,3.592,6.314,8.386,6.522,14.38l-13.178,0.579
				c-0.563-3.354-1.774-5.767-3.628-7.234c-1.855-1.47-4.64-2.204-8.349-2.204c-3.828,0-6.826,0.787-8.992,2.359
				c-1.396,1.01-2.093,2.359-2.093,4.052c0,1.543,0.652,2.864,1.958,3.962c1.662,1.396,5.699,2.85,12.109,4.363
				c6.411,1.514,11.151,3.079,14.225,4.695c3.071,1.619,5.476,3.83,7.211,6.635c1.736,2.805,2.605,6.27,2.605,10.395
				c0,3.74-1.039,7.242-3.117,10.508c-2.078,3.265-5.016,5.69-8.813,7.277c-3.8,1.588-8.533,2.383-14.201,2.383
				c-8.252,0-14.588-1.906-19.011-5.722C1801.67,303.813,1799.03,298.256,1798.169,290.955z"/>
			<path fill="#FFFFFF" d="M1886.139,294.783v-12.511h24.573v12.511H1886.139z"/>
			<path fill="#FFFFFF" d="M1943.479,312.19v-65.266h12.821l26.712,43.584v-43.584h12.241v65.266h-13.222l-26.312-42.561v42.561
				H1943.479z"/>
			<path fill="#FFFFFF" d="M2003.712,262.552c0-5.281,1.402-9.394,4.207-12.331c2.806-2.938,6.553-4.408,11.241-4.408
				c4.659,0,8.398,1.478,11.219,4.43c2.819,2.954,4.229,7.057,4.229,12.31c0,5.255-1.402,9.351-4.207,12.287
				c-2.805,2.938-6.552,4.407-11.241,4.407c-4.688,0-8.437-1.461-11.241-4.385C2005.115,271.938,2003.712,267.835,2003.712,262.552z
				 M2013.107,262.642c0,3.266,0.549,5.588,1.646,6.967c1.099,1.381,2.522,2.07,4.273,2.07s3.184-0.689,4.296-2.07
				c1.113-1.379,1.67-3.701,1.67-6.967c0-3.265-0.557-5.588-1.67-6.968c-1.112-1.38-2.545-2.07-4.296-2.07s-3.176,0.684-4.273,2.047
				C2013.656,257.017,2013.107,259.347,2013.107,262.642z"/>
			<path fill="#FFFFFF" d="M2064.615,294.873l12.109-1.47c0.386,3.087,1.425,5.445,3.115,7.078c1.691,1.633,3.739,2.449,6.145,2.449
				c2.582,0,4.756-0.979,6.521-2.938s2.648-4.601,2.648-7.925c0-3.146-0.846-5.639-2.537-7.479s-3.755-2.761-6.188-2.761
				c-1.604,0-3.518,0.312-5.743,0.937l1.38-10.195c3.384,0.09,5.966-0.646,7.747-2.203c1.78-1.559,2.671-3.629,2.671-6.211
				c0-2.195-0.653-3.946-1.959-5.254c-1.307-1.305-3.043-1.959-5.209-1.959c-2.137,0-3.962,0.742-5.477,2.228
				c-1.514,1.485-2.434,3.649-2.76,6.499l-11.53-1.959c0.802-3.946,2.011-7.102,3.628-9.46c1.617-2.359,3.873-4.214,6.768-5.564
				c2.894-1.35,6.136-2.025,9.728-2.025c6.145,0,11.07,1.958,14.78,5.876c3.057,3.205,4.585,6.827,4.585,10.862
				c0,5.729-3.131,10.3-9.394,13.711c3.739,0.803,6.729,2.599,8.971,5.388c2.24,2.79,3.361,6.159,3.361,10.106
				c0,5.728-2.093,10.609-6.277,14.646c-4.186,4.036-9.395,6.055-15.626,6.055c-5.906,0-10.804-1.698-14.691-5.098
				S2065.238,300.363,2064.615,294.873z"/>
			<path fill="#FFFFFF" d="M2147.776,312.19h-12.51v-47.146c-4.57,4.273-9.957,7.436-16.16,9.482v-11.354
				c3.265-1.068,6.812-3.094,10.64-6.076c3.829-2.982,6.456-6.462,7.88-10.438h10.15V312.19L2147.776,312.19z"/>
			<path fill="#FFFFFF" d="M2183.951,246.659c6.321,0,11.265,2.256,14.825,6.767c4.243,5.343,6.366,14.201,6.366,26.577
				c0,12.348-2.138,21.223-6.411,26.623c-3.532,4.451-8.459,6.678-14.78,6.678c-6.352,0-11.472-2.441-15.358-7.322
				c-3.887-4.883-5.831-13.586-5.831-26.11c0-12.287,2.137-21.132,6.409-26.533C2172.702,248.885,2177.63,246.659,2183.951,246.659z
				 M2183.951,257.031c-1.514,0-2.864,0.483-4.051,1.446c-1.188,0.965-2.108,2.693-2.761,5.188
				c-0.861,3.234-1.291,8.682-1.291,16.338c0,7.657,0.386,12.919,1.156,15.782c0.771,2.864,1.743,4.771,2.916,5.721
				c1.174,0.95,2.517,1.425,4.029,1.425c1.514,0,2.864-0.481,4.051-1.447c1.188-0.963,2.107-2.692,2.762-5.187
				c0.859-3.205,1.291-8.637,1.291-16.294c0-7.656-0.387-12.917-1.157-15.781c-0.772-2.863-1.744-4.777-2.916-5.742
				C2186.808,257.515,2185.464,257.031,2183.951,257.031z"/>
			<path fill="#FFFFFF" d="M2213.78,297.099l12.108-1.336c0.297,2.465,1.067,4.289,2.314,5.478c1.246,1.187,2.895,1.78,4.941,1.78
				c2.582,0,4.777-1.188,6.589-3.562c1.81-2.374,2.968-7.301,3.473-14.78c-3.146,3.65-7.079,5.476-11.798,5.476
				c-5.135,0-9.564-1.979-13.289-5.942c-3.726-3.962-5.587-9.118-5.587-15.47c0-6.618,1.966-11.953,5.897-16.005
				c3.934-4.051,8.941-6.076,15.025-6.076c6.617,0,12.05,2.56,16.294,7.679c4.243,5.12,6.366,13.542,6.366,25.266
				c0,11.932-2.211,20.539-6.634,25.82c-4.423,5.283-10.181,7.924-17.272,7.924c-5.105,0-9.23-1.356-12.377-4.072
				C2216.688,306.56,2214.668,302.501,2213.78,297.099z M2242.093,269.765c0-4.035-0.929-7.168-2.782-9.395
				c-1.855-2.227-4-3.339-6.434-3.339c-2.314,0-4.237,0.913-5.766,2.737c-1.529,1.825-2.293,4.815-2.293,8.972
				c0,4.215,0.831,7.309,2.493,9.282c1.661,1.973,3.738,2.959,6.231,2.959c2.404,0,4.43-0.948,6.077-2.849
				C2241.267,276.233,2242.093,273.444,2242.093,269.765z"/>
			<path fill="#FFFFFF" d="M2274.948,276.976c-3.235-1.363-5.588-3.242-7.057-5.631s-2.204-5.009-2.204-7.856
				c0-4.867,1.698-8.889,5.098-12.065c3.397-3.175,8.229-4.763,14.491-4.763c6.201,0,11.019,1.588,14.445,4.763
				c3.429,3.177,5.143,7.198,5.143,12.065c0,3.026-0.786,5.721-2.359,8.079c-1.572,2.359-3.783,4.162-6.633,5.408
				c3.62,1.455,6.373,3.577,8.258,6.366c1.886,2.79,2.827,6.011,2.827,9.661c0,6.025-1.922,10.922-5.766,14.691
				c-3.845,3.769-8.956,5.652-15.337,5.652c-5.937,0-10.877-1.558-14.824-4.674c-4.66-3.68-6.989-8.727-6.989-15.137
				c0-3.531,0.875-6.773,2.626-9.729C2268.417,280.856,2271.179,278.579,2274.948,276.976z M2276.372,292.335
				c0,3.443,0.883,6.129,2.649,8.059c1.766,1.93,3.969,2.895,6.61,2.895c2.582,0,4.72-0.928,6.41-2.783
				c1.691-1.854,2.538-4.533,2.538-8.035c0-3.057-0.86-5.513-2.582-7.367s-3.903-2.783-6.545-2.783
				c-3.057,0-5.335,1.055-6.833,3.162C2277.122,287.587,2276.372,289.872,2276.372,292.335z M2277.531,264.377
				c0,2.493,0.704,4.438,2.114,5.832c1.409,1.396,3.287,2.093,5.632,2.093c2.374,0,4.273-0.705,5.698-2.115
				c1.425-1.408,2.137-3.359,2.137-5.854c0-2.345-0.705-4.223-2.114-5.632c-1.41-1.409-3.271-2.114-5.587-2.114
				c-2.403,0-4.317,0.712-5.743,2.137C2278.243,260.149,2277.531,262.033,2277.531,264.377z"/>
			<path fill="#FFFFFF" d="M2344.296,312.19h-12.511v-47.146c-4.569,4.273-9.957,7.436-16.159,9.482v-11.354
				c3.265-1.068,6.812-3.094,10.64-6.076c3.829-2.982,6.456-6.462,7.88-10.438h10.149L2344.296,312.19L2344.296,312.19z"/>
		</g>
	</g>
</g>
</svg>
